ModelForces
version=1
nRows=4
nColumns=155
inDegrees=no

This file contains the forces exerted on a model during a simulation.

A force is a generalized force, meaning that it can be either a force (N) or a torque (Nm).

Units are S.I. units (second, meters, Newtons, ...)
Angles are in degrees.

endheader
time	glut_med1_r	glut_med2_r	glut_med3_r	glut_min1_r	glut_min2_r	glut_min3_r	semimem_r	semiten_r	bifemlh_r	bifemsh_r	sar_r	add_long_r	add_brev_r	add_mag1_r	add_mag2_r	add_mag3_r	tfl_r	pect_r	grac_r	glut_max1_r	glut_max2_r	glut_max3_r	iliacus_r	psoas_r	quad_fem_r	gem_r	peri_r	rect_fem_r	vas_med_r	vas_int_r	vas_lat_r	med_gas_r	lat_gas_r	soleus_r	tib_post_r	flex_dig_r	flex_hal_r	tib_ant_r	per_brev_r	per_long_r	per_tert_r	ext_dig_r	ext_hal_r	glut_med1_l	glut_med2_l	glut_med3_l	glut_min1_l	glut_min2_l	glut_min3_l	semimem_l	semiten_l	bifemlh_l	bifemsh_l	sar_l	add_long_l	add_brev_l	add_mag1_l	add_mag2_l	add_mag3_l	tfl_l	pect_l	grac_l	glut_max1_l	glut_max2_l	glut_max3_l	iliacus_l	psoas_l	quad_fem_l	gem_l	peri_l	rect_fem_l	vas_med_l	vas_int_l	vas_lat_l	med_gas_l	lat_gas_l	soleus_l	tib_post_l	flex_dig_l	flex_hal_l	tib_ant_l	per_brev_l	per_long_l	per_tert_l	ext_dig_l	ext_hal_l	ercspn_r	ercspn_l	intobl_r	intobl_l	extobl_r	extobl_l	femur_lat_meniscii_r.femur_lat_r.force.X	femur_lat_meniscii_r.femur_lat_r.force.Y	femur_lat_meniscii_r.femur_lat_r.force.Z	femur_lat_meniscii_r.femur_lat_r.torque.X	femur_lat_meniscii_r.femur_lat_r.torque.Y	femur_lat_meniscii_r.femur_lat_r.torque.Z	femur_lat_meniscii_r.meniscus_lat_r.force.X	femur_lat_meniscii_r.meniscus_lat_r.force.Y	femur_lat_meniscii_r.meniscus_lat_r.force.Z	femur_lat_meniscii_r.meniscus_lat_r.torque.X	femur_lat_meniscii_r.meniscus_lat_r.torque.Y	femur_lat_meniscii_r.meniscus_lat_r.torque.Z	femur_med_meniscii_r.femur_med_r.force.X	femur_med_meniscii_r.femur_med_r.force.Y	femur_med_meniscii_r.femur_med_r.force.Z	femur_med_meniscii_r.femur_med_r.torque.X	femur_med_meniscii_r.femur_med_r.torque.Y	femur_med_meniscii_r.femur_med_r.torque.Z	femur_med_meniscii_r.meniscus_med_r.force.X	femur_med_meniscii_r.meniscus_med_r.force.Y	femur_med_meniscii_r.meniscus_med_r.force.Z	femur_med_meniscii_r.meniscus_med_r.torque.X	femur_med_meniscii_r.meniscus_med_r.torque.Y	femur_med_meniscii_r.meniscus_med_r.torque.Z	femur_med_tibia_r.tibia_upper_r.force.X	femur_med_tibia_r.tibia_upper_r.force.Y	femur_med_tibia_r.tibia_upper_r.force.Z	femur_med_tibia_r.tibia_upper_r.torque.X	femur_med_tibia_r.tibia_upper_r.torque.Y	femur_med_tibia_r.tibia_upper_r.torque.Z	femur_med_tibia_r.femur_med_r.force.X	femur_med_tibia_r.femur_med_r.force.Y	femur_med_tibia_r.femur_med_r.force.Z	femur_med_tibia_r.femur_med_r.torque.X	femur_med_tibia_r.femur_med_r.torque.Y	femur_med_tibia_r.femur_med_r.torque.Z	femur_lat_tibia_r.tibia_upper_r.force.X	femur_lat_tibia_r.tibia_upper_r.force.Y	femur_lat_tibia_r.tibia_upper_r.force.Z	femur_lat_tibia_r.tibia_upper_r.torque.X	femur_lat_tibia_r.tibia_upper_r.torque.Y	femur_lat_tibia_r.tibia_upper_r.torque.Z	femur_lat_tibia_r.femur_lat_r.force.X	femur_lat_tibia_r.femur_lat_r.force.Y	femur_lat_tibia_r.femur_lat_r.force.Z	femur_lat_tibia_r.femur_lat_r.torque.X	femur_lat_tibia_r.femur_lat_r.torque.Y	femur_lat_tibia_r.femur_lat_r.torque.Z	aACL_R	pACL_R	aPCL_R	pPCL_R	aMCL_R	mMCL_R	pMCL_R	aLCL_R	mLCL_R	pLCL_R	aPCL_L	pPCL_L	aMCL_L	aLCL_L
      0.09610550	      0.00000000	     12.32431237	     13.26253111	      5.61208143	      6.41357465	      6.95936803	    116.05302028	    187.82759113	    269.89562495	    399.96080714	    128.36481619	     12.33192609	      8.68058246	      0.00000000	      4.87787059	      9.26892919	      4.93370727	      0.00000000	    105.32471739	      7.95414110	     12.15063975	      9.18088843	     34.97868570	     26.99724126	      4.59294172	      4.87721470	      0.04021428	     41.37399070	      0.00000000	      0.00000000	      0.00000000	     12.58647391	      1.40994501	      0.00000000	      6.63384523	      6.48239756	      3.53583566	     30.68711028	      2.29688786	      6.83102001	      0.00000000	     18.20582038	      5.74412877	      0.00000000	     12.32431237	     13.26253111	      5.61208143	      6.41357465	      6.95936803	      0.00000000	      9.33706414	     14.65248104	     15.48925648	      3.19662354	     12.33192609	      8.68058246	      0.00000000	      4.87787059	      9.26892919	      7.30486716	      0.00000000	      3.32102624	      7.95414110	     12.15063975	      9.18088843	     34.97868570	     26.99724126	      4.59294172	      4.87721470	      0.04021428	     25.24746489	      0.00000000	      0.00000000	      0.00000000	     10.01498116	      6.14559783	     55.92239741	     58.89001557	      9.29756619	      8.75012734	     16.85637743	      9.91786416	     22.21900807	      4.16070443	      9.86172855	      3.24614001	     52.86741126	     52.86741126	     20.18576710	     20.18576710	     36.98983290	     36.98983290	      2.16513974	     98.20295540	      6.86272481	     -5.12406601	      0.07479380	      0.79810670	     -2.16513974	    -98.20295540	     -6.86272481	      2.74166414	     -0.15134914	      1.04900122	     -0.31032260	      2.98976495	      0.27883939	     -0.04769849	      0.01250832	     -0.13693397	      0.31032260	     -2.98976495	     -0.27883939	     -0.05160482	     -0.01462186	      0.04908025	    -42.60187019	   -435.74095548	    118.62868843	    -10.85028468	      1.57750786	      1.95678503	     42.60187019	    435.74095548	   -118.62868843	     57.37220836	     -0.45449775	     18.87512744	    -64.04128179	   -593.78775138	   -132.21456401	     19.64750932	     -2.81930595	      3.14415854	     64.04128179	    593.78775138	    132.21456401	    -68.79537040	      1.28852962	     27.53663890	     60.83267827	     27.04767102	      0.00000000	      0.00000000	      0.00000000	      0.00000000	    -37.58617525	      0.00000000	      0.00000000	      0.00000000	      0.00000000	      0.00000000	      0.00000001	      0.00000000
      0.09698503	      0.00000000	     12.24751962	     13.18430938	      5.57752795	      6.37541206	      6.93719526	    117.85530666	    185.58198568	    269.26880218	    399.49290718	    127.87319138	     12.25245298	      8.62760625	      0.00000000	      4.90650016	      9.21112481	      4.94075753	      0.00000000	    104.58963895	      7.90666463	     12.07309170	      9.12133288	     34.83090380	     26.82916745	      5.49792152	      4.85346598	      0.59199200	     41.18094592	      0.00000000	      0.00000000	      0.00000000	     12.53895997	      1.09311419	      0.00000000	      6.27694662	      6.26955530	      3.30542430	     32.73369080	      2.00259425	      6.23853251	      1.73567968	     18.11896266	      5.71994126	      0.00000000	     12.24751962	     13.18430938	      5.57752795	      6.37541206	      6.93719526	      0.00000000	      9.27483533	     14.71164902	     15.39186873	      3.17702869	     12.25245298	      8.62760625	      0.00000000	      4.90650016	      9.21112481	      7.27169826	      0.00000000	      3.30033951	      7.90666463	     12.07309170	      9.12133288	     34.83090380	     26.82916745	      5.49792152	      4.85346598	      0.59199200	     25.12242196	      0.00000000	      0.00000000	      0.00000000	     10.63926075	      6.36928228	     56.21103849	     58.81966650	      9.18759531	      8.64114881	     16.89177484	      9.89076082	     22.19764747	      4.13550320	     10.00004205	      3.30121550	     52.54125171	     52.54125171	     20.05340575	     20.05340575	     36.86718249	     36.86718249	      2.08403831	     98.28949850	      7.43025784	     -5.36546935	      0.07472374	      0.75778937	     -2.08403831	    -98.28949850	     -7.43025784	      2.76473750	     -0.15756057	      1.06745221	     -0.66991691	      2.89729612	      0.18838807	     -0.01081120	      0.02052145	     -0.28200019	      0.66991691	     -2.89729612	     -0.18838807	     -0.05411907	     -0.02082191	      0.05572591	    -41.59946784	   -439.77263080	    121.04884156	    -10.98677454	      1.59819245	      2.09173122	     41.59946784	    439.77263080	   -121.04884156	     58.43876344	     -0.43680692	     18.43488452	    -63.87208034	   -583.41152944	   -130.75725566	     19.33332573	     -2.82750505	      3.16839083	     63.87208034	    583.41152944	    130.75725566	    -67.95532135	      1.30202061	     27.38879090	     59.12353316	     24.86591750	      0.00000000	      0.00000000	      0.00000000	      0.00000000	    -37.39851622	      0.00000000	      0.00000000	      0.00000000	      0.00000000	      0.00000000	      0.00000001	      0.00000000
      0.09786456	      0.00000000	     12.17142670	     13.10625317	      5.54339167	      6.33771486	      6.91382496	    119.07488483	    183.40357467	    268.59103718	    398.92911311	    127.41659563	     12.17395010	      8.57526753	      0.00000000	      4.92545804	      9.15371089	      4.94838872	      0.00000000	    103.89280269	      7.85935019	     11.99641702	      9.06248919	     34.68496444	     26.66317527	      6.08899843	      4.82996229	      1.05825430	     40.96423686	      0.00000000	      0.00000000	      0.00000000	     12.60666797	      0.80840785	      0.00000000	      5.90849952	      6.04774227	      3.07229261	     32.58998383	      1.75412273	      5.69999189	      5.13266963	     18.03703110	      5.69717680	      0.00000000	     12.17142670	     13.10625317	      5.54339167	      6.33771486	      6.91382496	      0.00000000	      9.21336592	     14.76265905	     15.29566529	      3.15767002	     12.17395010	      8.57526753	      0.00000000	      4.92545804	      9.15371089	      7.23868187	      0.00000000	      3.27990350	      7.85935019	     11.99641702	      9.06248919	     34.68496444	     26.66317527	      6.08899843	      4.82996229	      1.05825430	     24.99662707	      0.00000000	      0.00000000	      0.00000000	     11.22929361	      6.58199628	     56.47524185	     58.74710074	      9.07829298	      8.53127549	     16.91799211	      9.86266755	     22.17483942	      4.11056531	     10.13606330	      3.35713350	     52.21903258	     52.21903258	     19.92264872	     19.92264872	     36.74607516	     36.74607516	      1.40494856	     97.53904863	      8.00977712	     -5.58838638	      0.05825906	      0.46217512	     -1.40494856	    -97.53904863	     -8.00977712	      2.76246786	     -0.14610425	      1.10323754	     -1.07822091	      2.92296962	      0.13783183	      0.01264743	      0.02994835	     -0.44688446	      1.07822091	     -2.92296962	     -0.13783183	     -0.05819531	     -0.02873139	      0.06476787	    -42.29629139	   -444.13221321	    122.27133777	    -11.07999401	      1.63674448	      2.16251127	     42.29629139	    444.13221321	   -122.27133777	     59.00307565	     -0.45353893	     18.71293158	    -66.35614462	   -573.68614040	   -129.53444859	     19.04110838	     -2.89870286	      3.08511138	     66.35614462	    573.68614040	    129.53444859	    -67.22634003	      1.37006281	     28.36865137	     57.51229466	     22.80275769	      0.00000000	      0.00000000	      0.00000000	      0.00000000	    -36.79016242	      0.00000000	      0.00000000	      0.00000000	      0.00000000	      0.00000000	      0.00000001	      0.00000000
      0.09963031	      0.00000000	     12.02085927	     12.95038396	      5.47609814	      6.26341540	      6.86366661	    120.11989098	    179.30202114	    267.13226249	    397.82698130	    126.62246346	     12.01922742	      8.47208562	      0.00000000	      4.94073212	      9.03968765	      4.97020750	      0.00000000	    102.62547860	      7.76503548	     11.84511243	      8.94647443	     34.39744271	     26.33610543	      6.74019358	      4.78351913	      1.83146042	     40.55247872	      0.00000000	      0.00000000	      0.00000000	     13.13517955	      0.33896880	      0.00000000	      5.14559331	      5.58089106	      2.60262759	     30.68889799	      1.39063151	      4.76955522	      5.48650194	     17.85110858	      5.63125111	      0.00000000	     12.02085927	     12.95038396	      5.47609814	      6.26341540	      6.86366661	      0.00000000	      9.09221376	     14.84242552	     15.10604239	      3.11950681	     12.01922742	      8.47208562	      0.00000000	      4.94073212	      9.03968765	      7.17290075	      0.00000000	      3.23962034	      7.76503548	     11.84511243	      8.94647443	     34.39744271	     26.33610543	      6.74019358	      4.78351913	      1.83146042	     24.74224707	      0.00000000	      0.00000000	      0.00000000	     12.32080717	      6.97839549	     56.93621659	     58.59491423	      8.86137831	      8.30944928	     16.94561036	      9.80343443	     22.12472889	      4.06129750	     10.40744913	      3.47038293	     51.58384268	     51.58384268	     19.66490708	     19.66490708	     36.50751667	     36.50751667	      0.42768095	     95.57551893	      8.47577556	     -5.73328028	      0.03385332	      0.03265808	     -0.42768095	    -95.57551893	     -8.47577556	      2.72087436	     -0.12554814	      1.15332526	     -1.98733549	      3.45647077	      0.00003016	      0.08489093	      0.05091754	     -0.81692095	      1.98733549	     -3.45647077	     -0.00003016	     -0.07646828	     -0.04606853	      0.09288038	    -41.77253450	   -449.95503444	    124.83541718	    -11.24115716	      1.68745642	      2.36700217	     41.77253450	    449.95503444	   -124.83541718	     60.14221941	     -0.45423018	     18.44133671	    -67.24242090	   -551.12569344	   -125.94383261	     18.33401636	     -2.93485861	      3.04158616	     67.24242090	    551.12569344	    125.94383261	    -65.21676822	      1.42376816	     28.60196812	     54.50595944	     19.07236807	      0.00000000	      0.00000000	      0.00000000	      0.00000000	    -35.54202084	      0.00000000	      0.00000000	      0.00000000	      0.00000000	      0.00000000	      0.00000001	      0.00000000
